<svg xmlns="http://www.w3.org/2000/svg" viewBox="0 0 795.81 980.11"><defs><style>.a{fill:#c46916;}.b{fill:#204567;}</style></defs><title>Landona Logo Colour</title><rect class="a" x="133.15" y="388.95" width="202.44" height="202.44" transform="translate(-277.96 309.29) rotate(-45)"/><rect class="a" x="296.54" y="225.56" width="202.44" height="202.44" transform="translate(-114.57 376.97) rotate(-45)"/><rect class="a" x="296.54" y="552.34" width="202.44" height="202.44" transform="translate(-345.64 472.68) rotate(-45)"/><rect class="a" x="459.93" y="388.95" width="202.44" height="202.44" transform="translate(-182.25 540.36) rotate(-45)"/><rect class="b" x="-46.59" y="184.06" width="562.51" height="101.22" transform="translate(-97.2 234.67) rotate(-45)"/><rect class="b" x="313.31" y="102.66" width="332.29" height="101.22" transform="translate(248.81 -294.13) rotate(45)"/><rect class="b" x="32.71" y="165.9" width="200.42" height="101.22" transform="translate(-83.59 349.42) rotate(-90)"/><rect class="b" x="279.89" y="694.83" width="562.51" height="101.22" transform="translate(1485.05 875.76) rotate(135)"/><rect class="b" x="150.22" y="776.23" width="332.29" height="101.22" transform="translate(-44.6 1635.2) rotate(-135)"/></svg>